# xmcd CD database file
#
# Track frame offsets:
#	150
#	14015
#	31742
#	48267
#	64027
#	78515
#	95658
#	109735
#	125873
#	140345
#	157760
#	175775
#	194307
#	209830
#	229765
#	244422
#	262095
#	276901
#	292068
#	306484
#
# Disc length: 4318 seconds
#
# Revision: 0
# Processed by: cddbd v1.5.2PL0 Copyright (c) Steve Scherf et al.
# Submitted via: CDex 1.51
#
DISCID=3210dc14
DTITLE=Diverse - Tollhaus - Joker 6
DYEAR=2007
DGENRE=Schlager
TTITLE0=Marc Pircher - Du Bist Eine Sünde Wert
TTITLE1=Nik P. - Gloria II
TTITLE2=Bernhard Brink - Die Zeit Heilt Keine Wunden
TTITLE3=Jake Sanders - Turn Up The Radio (DJ Remix by Roger Hunt)
TTITLE4=Nockalm Quintett - Die Wahrheit
TTITLE5=Manuel Ortega - Viertel Nach Elf
TTITLE6=Diana Sorbello - Ich Fange Nie Mehr Was An Einem Sonntag An
TTITLE7=Lollies - Z'ruck Zu Dir (Hallo Klaus) (Nickerbocker Party Mix)
TTITLE8=Steirerbluat - Verlass Sie Jetzt Nicht
TTITLE9=Frank Lars - Dann Hau Doch Endlich Ab
TTITLE10=Fancy - Flames Of Love
TTITLE11=Reim - Wie Man Liebt
TTITLE12=Mike Bauhaus - Wovon Träumst Du Denn
TTITLE13=Denise - Lügen, Ja Lügen (DJ Mix)
TTITLE14=G.G. Anderson - Eine Stunde Dein Mann Zu Sein
TTITLE15=Michael Wendler - Prinzessin
TTITLE16=Die Aufgeiger - Hallo Fräulein Wunderbar
TTITLE17=Fantasy - Viel Zu Oft Schon Weh Getan
TTITLE18=Nordwand - Es Macht Boom
TTITLE19=Party Deejays - Wir Sind Eine Grosse Familie
EXTD=YEAR: 2007
EXTT0=
EXTT1=
EXTT2=
EXTT3=
EXTT4=
EXTT5=
EXTT6=
EXTT7=
EXTT8=
EXTT9=
EXTT10=
EXTT11=
EXTT12=
EXTT13=
EXTT14=
EXTT15=
EXTT16=
EXTT17=
EXTT18=
EXTT19=
PLAYORDER=
